<svg id="Layer_2" data-name="Layer 2" xmlns="http://www.w3.org/2000/svg" viewBox="0 0 1080 1080"><defs><style>.cls-1,.cls-17,.cls-18{fill:#dd1f26;}.cls-2,.cls-4,.cls-7{fill:#fff;}.cls-19,.cls-20,.cls-3{fill:#3a3a3a;}.cls-17,.cls-19,.cls-4{font-size:87.63px;font-family:Geomanist;letter-spacing:-0.05em;}.cls-5{letter-spacing:-0.07em;}.cls-6{letter-spacing:-0.05em;}.cls-18,.cls-20,.cls-7{font-size:30.58px;font-family:Geomanist-Light, Geomanist;font-weight:300;}.cls-8{letter-spacing:-0.03em;}.cls-9{letter-spacing:-0.01em;}.cls-10{letter-spacing:-0.01em;}.cls-11{letter-spacing:-0.01em;}.cls-12{letter-spacing:-0.01em;}.cls-13{letter-spacing:-0.01em;}.cls-14{letter-spacing:-0.02em;}.cls-15{letter-spacing:-0.01em;}.cls-16{letter-spacing:-0.01em;}</style></defs><rect class="cls-1" width="540" height="540"/><rect class="cls-2" x="540" width="540" height="540"/><rect class="cls-2" y="540" width="540" height="540"/><rect class="cls-3" x="540" y="540" width="540" height="540"/><path class="cls-2" d="M301.41,145.7V167c-1.36,0-2.73,0-4.09,0-11.93.2-23.95-.46-35.77.79-23,2.42-40.74,21.93-42.13,45-1.44,23.77,13.64,44.86,36.25,50.7a49.17,49.17,0,0,0,61.61-47.21c0-2.84,0-5.69,0-8.48-.55-.27-.86-.55-1.17-.55-12.65,0-25.33-.43-37.95.17-14.92.71-26.79,7.81-36,19.48a3.05,3.05,0,0,1-1.1,1,55.13,55.13,0,0,1,11.2-18.13q21.7-24.1,54.19-24c10.5,0,21.62,0,31.91,0v.84c0,16.19,2,32.52-2.4,48.44-12.23,44.4-63.37,65.56-102.93,42.11-25-14.8-37.34-37.58-34.89-66.56,2.58-30.48,19.6-51.07,48.4-61.32,6.38-2.27,13.51-3,20.35-3.32,10.84-.53,21.72-.14,32.59-.13Z"/><text class="cls-4" transform="translate(98.06 357.17)">glenmo<tspan class="cls-5" x="271.92" y="0">r</tspan><tspan class="cls-6" x="293.91" y="0">e</tspan></text><text class="cls-7" transform="translate(305.44 387.7)"><tspan class="cls-8">C</tspan><tspan class="cls-9" x="19.51" y="0">o</tspan><tspan class="cls-10" x="37.83" y="0">n</tspan><tspan class="cls-11" x="53.98" y="0">s</tspan><tspan class="cls-12" x="66.09" y="0">u</tspan><tspan class="cls-13" x="82.21" y="0">l</tspan><tspan class="cls-14" x="88.08" y="0">t</tspan><tspan class="cls-15" x="95.99" y="0">i</tspan><tspan class="cls-16" x="101.7" y="0">n</tspan><tspan x="118.06" y="0">g</tspan></text><path class="cls-1" d="M841.41,145.7V167c-1.36,0-2.73,0-4.09,0-11.93.2-24-.46-35.77.79-23,2.42-40.74,21.93-42.13,45-1.44,23.77,13.64,44.86,36.25,50.7a49.17,49.17,0,0,0,61.61-47.21c.05-2.84,0-5.69,0-8.48-.55-.27-.86-.55-1.17-.55-12.65,0-25.33-.43-38,.17-14.92.71-26.79,7.81-36,19.48a3.05,3.05,0,0,1-1.1,1,55.13,55.13,0,0,1,11.2-18.13q21.71-24.1,54.19-24c10.5,0,21.62,0,31.91,0v.84c0,16.19,2,32.52-2.4,48.44-12.23,44.4-63.37,65.56-102.93,42.11-25-14.8-37.34-37.58-34.89-66.56,2.58-30.48,19.6-51.07,48.4-61.32,6.38-2.27,13.51-3,20.35-3.32,10.84-.53,21.72-.14,32.59-.13Z"/><text class="cls-17" transform="translate(638.06 357.17)">glenmo<tspan class="cls-5" x="271.92" y="0">r</tspan><tspan class="cls-6" x="293.91" y="0">e</tspan></text><text class="cls-18" transform="translate(845.44 387.7)"><tspan class="cls-8">C</tspan><tspan class="cls-9" x="19.51" y="0">o</tspan><tspan class="cls-10" x="37.83" y="0">n</tspan><tspan class="cls-11" x="53.98" y="0">s</tspan><tspan class="cls-12" x="66.09" y="0">u</tspan><tspan class="cls-13" x="82.21" y="0">l</tspan><tspan class="cls-14" x="88.08" y="0">t</tspan><tspan class="cls-15" x="95.99" y="0">i</tspan><tspan class="cls-16" x="101.7" y="0">n</tspan><tspan x="118.06" y="0">g</tspan></text><path class="cls-1" d="M302.86,685.7V707c-1.36,0-2.72,0-4.09,0-11.93.2-23.95-.46-35.77.79-23,2.42-40.74,21.93-42.13,45-1.43,23.77,13.65,44.86,36.26,50.7a49.17,49.17,0,0,0,61.61-47.21c0-2.84,0-5.69,0-8.48-.55-.27-.85-.55-1.16-.55-12.66,0-25.33-.43-38,.17-14.91.71-26.78,7.81-36,19.48a3.09,3.09,0,0,1-1.11,1,55.16,55.16,0,0,1,11.21-18.13q21.71-24.11,54.19-24.05c10.5,0,21.61,0,31.91,0v.84c0,16.19,2,32.52-2.4,48.44-12.23,44.4-63.38,65.56-102.94,42.11-25-14.8-37.33-37.58-34.88-66.56,2.58-30.48,19.6-51.07,48.39-61.32,6.39-2.27,13.51-3,20.35-3.32,10.84-.53,21.73-.14,32.59-.13Z"/><text class="cls-19" transform="translate(99.51 897.17)">glenmo<tspan class="cls-5" x="271.92" y="0">r</tspan><tspan class="cls-6" x="293.91" y="0">e</tspan></text><text class="cls-20" transform="translate(306.89 927.7)"><tspan class="cls-8">C</tspan><tspan class="cls-9" x="19.51" y="0">o</tspan><tspan class="cls-10" x="37.83" y="0">n</tspan><tspan class="cls-11" x="53.98" y="0">s</tspan><tspan class="cls-12" x="66.09" y="0">u</tspan><tspan class="cls-13" x="82.21" y="0">l</tspan><tspan class="cls-14" x="88.08" y="0">t</tspan><tspan class="cls-15" x="95.99" y="0">i</tspan><tspan class="cls-16" x="101.7" y="0">n</tspan><tspan x="118.06" y="0">g</tspan></text><path class="cls-2" d="M841.41,685.7V707c-1.36,0-2.73,0-4.09,0-11.93.2-24-.46-35.77.79-23,2.42-40.74,21.93-42.13,45-1.44,23.77,13.64,44.86,36.25,50.7a49.17,49.17,0,0,0,61.61-47.21c0-2.84,0-5.69,0-8.48-.55-.27-.86-.55-1.17-.55-12.65,0-25.33-.43-38,.17-14.92.71-26.79,7.81-36,19.48a3.05,3.05,0,0,1-1.1,1,55,55,0,0,1,11.2-18.13Q814,725.6,846.49,725.65c10.5,0,21.62,0,31.91,0v.84c0,16.19,2,32.52-2.4,48.44-12.23,44.4-63.37,65.56-102.93,42.11-25-14.8-37.34-37.58-34.89-66.56,2.58-30.48,19.6-51.07,48.4-61.32,6.38-2.27,13.51-3,20.35-3.32,10.84-.53,21.72-.14,32.59-.13Z"/><text class="cls-4" transform="translate(638.06 897.17)">glenmo<tspan class="cls-5" x="271.92" y="0">r</tspan><tspan class="cls-6" x="293.91" y="0">e</tspan></text><text class="cls-7" transform="translate(845.44 927.7)"><tspan class="cls-8">C</tspan><tspan class="cls-9" x="19.51" y="0">o</tspan><tspan class="cls-10" x="37.83" y="0">n</tspan><tspan class="cls-11" x="53.98" y="0">s</tspan><tspan class="cls-12" x="66.09" y="0">u</tspan><tspan class="cls-13" x="82.21" y="0">l</tspan><tspan class="cls-14" x="88.08" y="0">t</tspan><tspan class="cls-15" x="95.99" y="0">i</tspan><tspan class="cls-16" x="101.7" y="0">n</tspan><tspan x="118.06" y="0">g</tspan></text></svg>