<svg id="Layer_2" data-name="Layer 2" xmlns="http://www.w3.org/2000/svg" viewBox="0 0 1080 1080"><defs><style>.cls-1{fill:#dd1f26;}.cls-2{font-size:163.71px;font-family:Geomanist;letter-spacing:-0.05em;}.cls-2,.cls-4{fill:#3a3a3a;}.cls-3{letter-spacing:-0.07em;}.cls-4{font-size:57.13px;font-family:Geomanist-Light, Geomanist;font-weight:300;}.cls-5{letter-spacing:-0.04em;}.cls-6{letter-spacing:-0.02em;}.cls-7{letter-spacing:-0.02em;}.cls-8{letter-spacing:-0.02em;}.cls-9{letter-spacing:-0.02em;}.cls-10{letter-spacing:-0.02em;}.cls-11{letter-spacing:-0.03em;}.cls-12{letter-spacing:-0.02em;}.cls-13{letter-spacing:-0.01em;}</style></defs><path class="cls-1" d="M598.69,307.78v39.79c-2.54,0-5.09,0-7.64,0-22.29.37-44.74-.86-66.82,1.47-43,4.53-76.11,41-78.71,84-2.68,44.42,25.49,83.81,67.73,94.72a91.86,91.86,0,0,0,115.1-88.19c.08-5.32,0-10.64,0-15.85-1-.5-1.6-1-2.18-1-23.64,0-47.32-.79-70.91.32-27.86,1.32-50,14.6-67.2,36.39a5.56,5.56,0,0,1-2.06,1.79c4.6-12.74,11.92-23.87,20.93-33.87q40.55-45,101.23-44.92c19.62.06,40.39-.05,59.62-.05V384c.08,30.24,3.71,60.75-4.48,90.49C640.46,557.39,544.91,596.92,471,553.12c-46.66-27.66-69.75-70.21-65.17-124.35,4.82-56.95,36.61-95.42,90.41-114.56,11.93-4.24,25.24-5.57,38-6.2,20.25-1,40.59-.26,60.89-.24Z"/><text class="cls-2" transform="translate(218.78 702.86)">glenmo<tspan class="cls-3" x="508" y="0">r</tspan><tspan x="549.09" y="0">e</tspan></text><text class="cls-4" transform="translate(606.21 759.88)"><tspan class="cls-5">C</tspan><tspan class="cls-6" x="35.96" y="0">o</tspan><tspan class="cls-7" x="69.73" y="0">n</tspan><tspan class="cls-8" x="99.44" y="0">s</tspan><tspan class="cls-9" x="121.6" y="0">u</tspan><tspan class="cls-10" x="151.26" y="0">l</tspan><tspan class="cls-11" x="161.78" y="0">t</tspan><tspan class="cls-12" x="176.08" y="0">i</tspan><tspan class="cls-13" x="186.29" y="0">n</tspan><tspan x="216.41" y="0">g</tspan></text></svg>