<svg width="48" height="48" viewBox="0 0 48 48" fill="none" xmlns="http://www.w3.org/2000/svg">
<mask id="mask0_517_682" style="mask-type:alpha" maskUnits="userSpaceOnUse" x="0" y="0" width="48" height="48">
<rect width="48" height="48" fill="#D9D9D9"/>
</mask>
<g mask="url(#mask0_517_682)">
<path d="M24 29C25.3974 29 26.5801 28.516 27.5481 27.5481C28.516 26.5801 29 25.3974 29 24C29 22.6026 28.516 21.4199 27.5481 20.452C26.5801 19.484 25.3974 19.0001 24 19.0001C22.6026 19.0001 21.4199 19.484 20.452 20.452C19.484 21.4199 19.0001 22.6026 19.0001 24C19.0001 25.3974 19.484 26.5801 20.452 27.5481C21.4199 28.516 22.6026 29 24 29ZM24.0034 43C21.3755 43 18.9054 42.5013 16.5932 41.504C14.2809 40.5066 12.2695 39.1531 10.5591 37.4435C8.84859 35.7338 7.49448 33.7233 6.49671 31.412C5.49894 29.1008 5.00006 26.6312 5.00006 24.0034C5.00006 21.3755 5.49873 18.9054 6.49606 16.5932C7.49339 14.2809 8.84689 12.2695 10.5566 10.5591C12.2663 8.8486 14.2767 7.49448 16.588 6.49671C18.8992 5.49895 21.3688 5.00006 23.9967 5.00006C26.6245 5.00006 29.0946 5.49873 31.4069 6.49606C33.7192 7.4934 35.7305 8.8469 37.441 10.5566C39.1514 12.2663 40.5055 14.2767 41.5033 16.588C42.5011 18.8992 43 21.3688 43 23.9967C43 26.6245 42.5013 29.0946 41.504 31.4069C40.5066 33.7192 39.1531 35.7305 37.4435 37.441C35.7338 39.1514 33.7233 40.5055 31.412 41.5033C29.1008 42.5011 26.6312 43 24.0034 43ZM24 40C28.4667 40 32.25 38.45 35.35 35.35C38.45 32.25 40 28.4667 40 24C40 19.5333 38.45 15.75 35.35 12.65C32.25 9.55001 28.4667 8.00001 24 8.00001C19.5333 8.00001 15.75 9.55001 12.65 12.65C9.55001 15.75 8.00001 19.5333 8.00001 24C8.00001 28.4667 9.55001 32.25 12.65 35.35C15.75 38.45 19.5333 40 24 40Z" fill="#FF193B"/>
</g>
</svg>
