<svg width="48" height="48" viewBox="0 0 48 48" fill="none" xmlns="http://www.w3.org/2000/svg">
<mask id="mask0_517_691" style="mask-type:alpha" maskUnits="userSpaceOnUse" x="0" y="0" width="48" height="48">
<rect width="48" height="48" fill="#D9D9D9"/>
</mask>
<g mask="url(#mask0_517_691)">
<path d="M17.9231 44.1191C16.3898 44.1191 15.0308 43.6871 13.8462 42.823C12.6616 41.9589 11.7936 40.814 11.2424 39.3884C10.7731 40.0756 10.1558 40.6044 9.39047 40.9749C8.62511 41.3454 7.82831 41.5307 7.00007 41.5307C5.45394 41.5307 4.15076 40.996 3.09052 39.9265C2.03026 38.8571 1.50012 37.5585 1.50012 36.0307C1.50012 34.7 1.94756 33.4948 2.84242 32.4153C3.73729 31.3359 4.86934 30.7513 6.23857 30.6615C5.66934 30.0205 5.22446 29.2961 4.90392 28.4884C4.58342 27.6807 4.42317 26.8346 4.42317 25.95C4.42317 24.7286 4.72957 23.5835 5.34237 22.5147C5.95521 21.4459 6.81417 20.5705 7.91927 19.8885C8.04807 20.3359 8.22194 20.8144 8.44087 21.324C8.65981 21.8336 8.90132 22.2807 9.16542 22.6653C8.62182 23.0833 8.20387 23.5837 7.91157 24.1666C7.61924 24.7495 7.47307 25.3607 7.47307 26C7.47307 27.9692 8.23974 29.2122 9.77307 29.7288C11.3064 30.2455 12.8205 30.65 14.3154 30.9423L15.0154 32.1384C14.6487 33.2051 14.3417 34.1102 14.0942 34.8538C13.8468 35.5974 13.7231 36.2756 13.7231 36.8884C13.7231 38.0115 14.128 38.9942 14.9378 39.8365C15.7476 40.6788 16.7363 41.1 17.9039 41.1C19.2475 41.1 20.3552 40.5494 21.227 39.4481C22.0988 38.3468 22.8142 37.0455 23.3732 35.5442C23.9321 34.043 24.3629 32.5122 24.6655 30.9519C24.968 29.3917 25.2155 28.1564 25.4078 27.2462L28.3462 28.0461C28.059 29.4564 27.7115 31.0833 27.3039 32.9269C26.8962 34.7705 26.3199 36.5224 25.575 38.1826C24.8302 39.8429 23.85 41.2474 22.6347 42.3961C21.4193 43.5448 19.8488 44.1191 17.9231 44.1191ZM7.00007 38.5307C7.69497 38.5307 8.28537 38.2878 8.77127 37.8019C9.25717 37.316 9.50012 36.7256 9.50012 36.0307C9.50012 35.3358 9.25717 34.7454 8.77127 34.2595C8.28537 33.7736 7.69497 33.5307 7.00007 33.5307C6.30521 33.5307 5.71482 33.7736 5.22892 34.2595C4.74302 34.7454 4.50007 35.3358 4.50007 36.0307C4.50007 36.7256 4.74302 37.316 5.22892 37.8019C5.71482 38.2878 6.30521 38.5307 7.00007 38.5307ZM20.1808 30.4577C18.7372 29.1679 17.4225 27.9634 16.2366 26.8442C15.0507 25.725 14.0286 24.6327 13.1703 23.5673C12.312 22.5019 11.6524 21.4366 11.1915 20.3712C10.7305 19.3058 10.5001 18.1987 10.5001 17.05C10.5001 15.0241 11.1936 13.3176 12.5806 11.9306C13.9676 10.5436 15.6741 9.85004 17.7 9.85004C17.9488 9.85004 18.1712 9.86479 18.3674 9.89429C18.5635 9.92379 18.7603 9.95777 18.9578 9.99624C18.8116 9.67571 18.6988 9.35084 18.6193 9.02164C18.5398 8.69244 18.5001 8.34679 18.5001 7.98469C18.5001 6.45692 19.0346 5.15833 20.1036 4.08889C21.1726 3.01946 22.4706 2.48474 23.9978 2.48474C25.5249 2.48474 26.8237 3.01946 27.8942 4.08889C28.9647 5.15833 29.5 6.45692 29.5 7.98469C29.5 8.35136 29.4602 8.69302 29.3808 9.00969C29.3013 9.32636 29.1884 9.64494 29.0423 9.96544C29.2397 9.92698 29.4365 9.89812 29.6327 9.87889C29.8288 9.85966 30.0513 9.85004 30.3 9.85004C32.0564 9.85004 33.5673 10.3859 34.8327 11.4577C36.098 12.5295 36.9025 13.8744 37.2461 15.4923C36.789 15.4179 36.2747 15.3807 35.7033 15.3807C35.1319 15.3807 34.6064 15.4077 34.127 15.4615C33.8295 14.6949 33.3436 14.0679 32.6693 13.5807C31.9949 13.0936 31.208 12.85 30.3085 12.85C29.0977 12.85 28.1449 13.182 27.45 13.8461C26.7552 14.5102 25.8282 15.5115 24.6692 16.85H23.2808C22.0885 15.4577 21.1449 14.4429 20.45 13.8057C19.7552 13.1686 18.8385 12.85 17.7 12.85C16.4892 12.85 15.4865 13.2473 14.6919 14.0419C13.8973 14.8365 13.5 15.8392 13.5 17.05C13.5 17.8208 13.707 18.6167 14.1211 19.4377C14.5352 20.2587 15.1234 21.1276 15.8856 22.0442C16.6478 22.9609 17.5721 23.9359 18.6586 24.9692C19.7452 26.0026 20.9654 27.1192 22.3192 28.3192L20.1808 30.4577ZM24 10.4847C24.6949 10.4847 25.2853 10.2418 25.7712 9.75589C26.2571 9.26996 26.5001 8.67956 26.5001 7.98469C26.5001 7.28982 26.2571 6.69943 25.7712 6.21349C25.2853 5.72759 24.6949 5.48464 24 5.48464C23.3052 5.48464 22.7148 5.72759 22.2288 6.21349C21.7429 6.69943 21.5 7.28982 21.5 7.98469C21.5 8.67956 21.7429 9.26996 22.2288 9.75589C22.7148 10.2418 23.3052 10.4847 24 10.4847ZM29.9885 44.1384C29.3845 44.1384 28.7875 44.063 28.1973 43.9122C27.6071 43.7615 27.0375 43.5228 26.4885 43.1961C26.7645 42.843 27.0405 42.4267 27.3165 41.9474C27.5925 41.4681 27.8434 41.0267 28.0692 40.6231C28.4007 40.8012 28.7321 40.9284 29.0635 41.0047C29.3949 41.0811 29.7263 41.1192 30.0577 41.1192C31.2397 41.1192 32.2404 40.6987 33.0596 39.8576C33.8789 39.0165 34.2885 38.0165 34.2885 36.8577C34.2885 36.2282 34.1648 35.5491 33.9173 34.8202C33.6699 34.0913 33.3628 33.1936 32.9962 32.1269L33.7154 30.9308C35.2436 30.6385 36.7661 30.2308 38.2827 29.7077C39.7994 29.1846 40.5577 27.9384 40.5577 25.9692C40.5577 24.4948 40.0276 23.4128 38.9673 22.723C37.9071 22.0333 36.7295 21.6884 35.4346 21.6884C34.0626 21.6884 32.4619 21.9358 30.6325 22.4307C28.8032 22.9256 26.6769 23.5768 24.2539 24.3845L23.4539 21.4461C25.9 20.6641 28.09 20.0026 30.0239 19.4615C31.9578 18.9205 33.7331 18.65 35.35 18.65C37.5089 18.65 39.4166 19.2885 41.073 20.5654C42.7294 21.8423 43.5576 23.6436 43.5576 25.9692C43.5576 26.8483 43.4006 27.6835 43.0865 28.4747C42.7724 29.2659 42.3307 29.9949 41.7615 30.6615C43.1307 30.7641 44.2628 31.3487 45.1576 32.4153C46.0525 33.482 46.4999 34.6871 46.4999 36.0307C46.4999 37.5435 45.9698 38.8384 44.9095 39.9153C43.8493 40.9922 42.5461 41.5307 41 41.5307C40.1717 41.5307 39.3749 41.3454 38.6096 40.9749C37.8442 40.6044 37.2269 40.0756 36.7577 39.3884C36.2064 40.814 35.3321 41.9621 34.1346 42.8326C32.9372 43.7031 31.5551 44.1384 29.9885 44.1384ZM41.05 38.5307C41.7448 38.5307 42.3269 38.2878 42.7961 37.8019C43.2654 37.316 43.5 36.7256 43.5 36.0307C43.5 35.3358 43.257 34.7371 42.7711 34.2345C42.2852 33.732 41.6948 33.4807 41 33.4807C40.3051 33.4807 39.7147 33.7236 39.2288 34.2095C38.7429 34.6954 38.4999 35.2858 38.4999 35.9807C38.4999 36.6756 38.7512 37.2743 39.2538 37.7769C39.7563 38.2795 40.3551 38.5307 41.05 38.5307Z" fill="#FF193B"/>
</g>
</svg>
