<svg width="48" height="48" viewBox="0 0 48 48" fill="none" xmlns="http://www.w3.org/2000/svg">
<mask id="mask0_517_676" style="mask-type:alpha" maskUnits="userSpaceOnUse" x="0" y="0" width="48" height="48">
<rect width="48" height="48" fill="#D9D9D9"/>
</mask>
<g mask="url(#mask0_517_676)">
<path d="M6.5 19.3C6.26666 19.1333 6.125 18.925 6.075 18.675C6.025 18.425 6.1 18.1667 6.3 17.9C8.36666 15.0667 10.9583 12.8667 14.075 11.3C17.1917 9.73332 20.5167 8.94999 24.05 8.94999C27.5833 8.94999 30.9167 9.70832 34.05 11.225C37.1833 12.7417 39.8 14.9333 41.9 17.8C42.1333 18.1 42.2083 18.3667 42.125 18.6C42.0417 18.8333 41.9 19.0333 41.7 19.2C41.5 19.3667 41.2667 19.4417 41 19.425C40.7333 19.4083 40.5 19.2667 40.3 19C38.4667 16.4 36.1083 14.4083 33.225 13.025C30.3417 11.6417 27.2833 10.95 24.05 10.95C20.8167 10.95 17.7833 11.6417 14.95 13.025C12.1167 14.4083 9.76666 16.4 7.9 19C7.7 19.3 7.46666 19.4667 7.2 19.5C6.93333 19.5333 6.7 19.4667 6.5 19.3ZM29.7 43.95C26.2333 43.0833 23.4 41.3583 21.2 38.775C19 36.1917 17.9 33.0333 17.9 29.3C17.9 27.6333 18.5 26.2333 19.7 25.1C20.9 23.9667 22.35 23.4 24.05 23.4C25.75 23.4 27.2 23.9667 28.4 25.1C29.6 26.2333 30.2 27.6333 30.2 29.3C30.2 30.4 30.6167 31.325 31.45 32.075C32.2833 32.825 33.2667 33.2 34.4 33.2C35.5333 33.2 36.5 32.825 37.3 32.075C38.1 31.325 38.5 30.4 38.5 29.3C38.5 25.4333 37.0833 22.1833 34.25 19.55C31.4167 16.9167 28.0333 15.6 24.1 15.6C20.1667 15.6 16.7833 16.9167 13.95 19.55C11.1167 22.1833 9.7 25.4167 9.7 29.25C9.7 30.05 9.775 31.05 9.925 32.25C10.075 33.45 10.4333 34.85 11 36.45C11.1 36.75 11.0917 37.0167 10.975 37.25C10.8583 37.4833 10.6667 37.65 10.4 37.75C10.1333 37.85 9.875 37.8417 9.625 37.725C9.375 37.6083 9.2 37.4167 9.1 37.15C8.6 35.85 8.24166 34.5583 8.025 33.275C7.80833 31.9917 7.7 30.6667 7.7 29.3C7.7 24.8667 9.30833 21.15 12.525 18.15C15.7417 15.15 19.5833 13.65 24.05 13.65C28.55 13.65 32.4167 15.15 35.65 18.15C38.8833 21.15 40.5 24.8667 40.5 29.3C40.5 30.9667 39.9083 32.3583 38.725 33.475C37.5417 34.5917 36.1 35.15 34.4 35.15C32.7 35.15 31.2417 34.5917 30.025 33.475C28.8083 32.3583 28.2 30.9667 28.2 29.3C28.2 28.2 27.7917 27.275 26.975 26.525C26.1583 25.775 25.1833 25.4 24.05 25.4C22.9167 25.4 21.9417 25.775 21.125 26.525C20.3083 27.275 19.9 28.2 19.9 29.3C19.9 32.5333 20.8583 35.2333 22.775 37.4C24.6917 39.5667 27.1667 41.0833 30.2 41.95C30.5 42.05 30.7 42.2167 30.8 42.45C30.9 42.6833 30.9167 42.9333 30.85 43.2C30.7833 43.4333 30.65 43.6333 30.45 43.8C30.25 43.9667 30 44.0167 29.7 43.95ZM13 8.84999C12.7333 9.01665 12.4667 9.05832 12.2 8.97499C11.9333 8.89165 11.7333 8.71665 11.6 8.44999C11.4667 8.18332 11.4333 7.94165 11.5 7.72499C11.5667 7.50832 11.7333 7.31665 12 7.14999C13.8667 6.14999 15.8167 5.38332 17.85 4.84999C19.8833 4.31665 21.95 4.04999 24.05 4.04999C26.1833 4.04999 28.2667 4.30832 30.3 4.82499C32.3333 5.34165 34.3 6.08332 36.2 7.04999C36.5 7.21665 36.675 7.41665 36.725 7.64999C36.775 7.88332 36.75 8.11665 36.65 8.34999C36.55 8.58332 36.3833 8.76665 36.15 8.89999C35.9167 9.03332 35.6333 9.01665 35.3 8.84999C33.5333 7.94999 31.7083 7.25832 29.825 6.77499C27.9417 6.29165 26.0167 6.04999 24.05 6.04999C22.1167 6.04999 20.2167 6.27499 18.35 6.72499C16.4833 7.17499 14.7 7.88332 13 8.84999ZM18.9 43.25C16.9333 41.1833 15.425 39.075 14.375 36.925C13.325 34.775 12.8 32.2333 12.8 29.3C12.8 26.2667 13.9 23.7083 16.1 21.625C18.3 19.5417 20.95 18.5 24.05 18.5C27.15 18.5 29.8167 19.5417 32.05 21.625C34.2833 23.7083 35.4 26.2667 35.4 29.3C35.4 29.6 35.3083 29.8417 35.125 30.025C34.9417 30.2083 34.7 30.3 34.4 30.3C34.1333 30.3 33.9 30.2083 33.7 30.025C33.5 29.8417 33.4 29.6 33.4 29.3C33.4 26.8 32.475 24.7083 30.625 23.025C28.775 21.3417 26.5833 20.5 24.05 20.5C21.5167 20.5 19.3417 21.3417 17.525 23.025C15.7083 24.7083 14.8 26.8 14.8 29.3C14.8 32 15.2667 34.2917 16.2 36.175C17.1333 38.0583 18.5 39.95 20.3 41.85C20.5 42.05 20.6 42.2833 20.6 42.55C20.6 42.8167 20.5 43.05 20.3 43.25C20.1 43.45 19.8667 43.55 19.6 43.55C19.3333 43.55 19.1 43.45 18.9 43.25ZM34 39.85C31.0333 39.85 28.4583 38.85 26.275 36.85C24.0917 34.85 23 32.3333 23 29.3C23 29.0333 23.0917 28.8 23.275 28.6C23.4583 28.4 23.7 28.3 24 28.3C24.3 28.3 24.5417 28.4 24.725 28.6C24.9083 28.8 25 29.0333 25 29.3C25 31.8 25.9 33.85 27.7 35.45C29.5 37.05 31.6 37.85 34 37.85C34.2 37.85 34.4833 37.8333 34.85 37.8C35.2167 37.7667 35.6 37.7167 36 37.65C36.3 37.5833 36.5583 37.625 36.775 37.775C36.9917 37.925 37.1333 38.15 37.2 38.45C37.2667 38.7167 37.2167 38.95 37.05 39.15C36.8833 39.35 36.6667 39.4833 36.4 39.55C35.8 39.7167 35.275 39.8083 34.825 39.825C34.375 39.8417 34.1 39.85 34 39.85Z" fill="#FF193B"/>
</g>
</svg>
