<svg width="48" height="48" viewBox="0 0 48 48" fill="none" xmlns="http://www.w3.org/2000/svg">
<mask id="mask0_517_679" style="mask-type:alpha" maskUnits="userSpaceOnUse" x="0" y="0" width="48" height="48">
<rect width="48" height="48" fill="#D9D9D9"/>
</mask>
<g mask="url(#mask0_517_679)">
<path d="M12.0045 45C10.6169 45 9.43588 44.5143 8.46155 43.543C7.48718 42.5717 7 41.3922 7 40.0045C7 38.6169 7.48622 37.4359 8.45865 36.4616C9.43112 35.4872 10.612 35 12.0012 35C12.3901 35 12.7974 35.0564 13.2231 35.1692C13.6487 35.282 14.0449 35.4346 14.4115 35.6269L19.4923 29.3077C18.7641 28.5308 18.268 27.6718 18.0039 26.7307C17.7398 25.7897 17.6949 24.8359 17.8692 23.8693L10.3962 21.4039C9.95768 22.1859 9.35273 22.8141 8.5813 23.2885C7.8099 23.7628 6.94947 24 6 24C4.6111 24 3.43055 23.5143 2.45835 22.543C1.48612 21.5716 1 20.3922 1 19.0046C1 17.6169 1.48567 16.4359 2.457 15.4616C3.42833 14.4872 4.60783 14 5.9955 14C7.38313 14 8.56412 14.4861 9.53845 15.4584C10.5128 16.4306 11 17.6111 11 19C11 19.1692 10.9936 19.3 10.9808 19.3923C10.968 19.4846 10.9616 19.5769 10.9616 19.6693L18.3962 22.2616C18.8321 21.4205 19.4545 20.6859 20.2635 20.0577C21.0724 19.4295 22.0231 19.0243 23.1154 18.8423V10.9154C21.841 10.6769 20.8365 10.084 20.1019 9.13655C19.3673 8.18912 19 7.1383 19 5.9841C19 4.61007 19.4857 3.43588 20.457 2.46155C21.4283 1.48718 22.6078 1 23.9955 1C25.3831 1 26.5641 1.48612 27.5385 2.45835C28.5128 3.43055 29 4.6111 29 6C29 7.1436 28.6308 8.18912 27.8923 9.13655C27.1538 10.084 26.1513 10.6769 24.8846 10.9154V18.8423C25.9769 19.0243 26.9212 19.4295 27.7173 20.0577C28.5135 20.6859 29.1423 21.4205 29.6039 22.2616L37.0384 19.6693C37.0128 19.5513 37 19.4526 37 19.3731V19C37 17.6111 37.4857 16.4306 38.457 15.4584C39.4284 14.4861 40.6078 14 41.9954 14C43.3831 14 44.5641 14.4857 45.5384 15.457C46.5128 16.4284 47 17.6079 47 18.9955C47 20.3831 46.5139 21.5641 45.5417 22.5385C44.5695 23.5128 43.3889 24 42 24C41.0588 24 40.1985 23.7628 39.4191 23.2885C38.6397 22.8141 38.0346 22.1859 37.6039 21.4039L30.1308 23.8693C30.3051 24.8359 30.2602 25.7878 29.9961 26.725C29.732 27.6622 29.2359 28.5103 28.5077 29.2693L33.5885 35.5769C33.9551 35.4102 34.3513 35.2724 34.7769 35.1635C35.2026 35.0545 35.6099 35 35.9989 35C37.3881 35 38.5689 35.4857 39.5414 36.457C40.5138 37.4283 41 38.6078 41 39.9955C41 41.3831 40.5143 42.5641 39.543 43.5385C38.5716 44.5128 37.3922 45 36.0046 45C34.6169 45 33.4359 44.5139 32.4616 43.5417C31.4872 42.5695 31 41.3889 31 40C31 39.4053 31.0955 38.8329 31.2866 38.2828C31.4776 37.7327 31.7948 37.2205 32.2384 36.7462L27.1577 30.35C26.2526 30.9372 25.2045 31.2308 24.0135 31.2308C22.8224 31.2308 21.7615 30.9372 20.8307 30.35L15.7615 36.7462C16.1795 37.2205 16.4904 37.7327 16.6943 38.2828C16.8981 38.8329 17 39.4053 17 40C17 41.3889 16.5143 42.5695 15.543 43.5417C14.5717 44.5139 13.3922 45 12.0045 45ZM6 22C6.82307 22 7.52883 21.7058 8.1173 21.1173C8.70577 20.5288 9 19.8231 9 19C9 18.1769 8.70577 17.4712 8.1173 16.8827C7.52883 16.2942 6.82307 16 6 16C5.17693 16 4.47117 16.2942 3.8827 16.8827C3.29423 17.4712 3 18.1769 3 19C3 19.8231 3.29423 20.5288 3.8827 21.1173C4.47117 21.7058 5.17693 22 6 22ZM12 43C12.8231 43 13.5288 42.7058 14.1173 42.1173C14.7058 41.5288 15 40.8231 15 40C15 39.1769 14.7058 38.4712 14.1173 37.8827C13.5288 37.2942 12.8231 37 12 37C11.1769 37 10.4712 37.2942 9.8827 37.8827C9.29423 38.4712 9 39.1769 9 40C9 40.8231 9.29423 41.5288 9.8827 42.1173C10.4712 42.7058 11.1769 43 12 43ZM24 9C24.8231 9 25.5288 8.70577 26.1173 8.1173C26.7058 7.52883 27 6.82307 27 6C27 5.17693 26.7058 4.47117 26.1173 3.8827C25.5288 3.29423 24.8231 3 24 3C23.1769 3 22.4712 3.29423 21.8827 3.8827C21.2942 4.47117 21 5.17693 21 6C21 6.82307 21.2942 7.52883 21.8827 8.1173C22.4712 8.70577 23.1769 9 24 9ZM24 29.2307C25.1692 29.2307 26.1667 28.8179 26.9923 27.9923C27.8179 27.1667 28.2307 26.1692 28.2307 25C28.2307 23.8308 27.8179 22.8333 26.9923 22.0077C26.1667 21.1821 25.1692 20.7693 24 20.7693C22.8308 20.7693 21.8333 21.1821 21.0077 22.0077C20.1821 22.8333 19.7693 23.8308 19.7693 25C19.7693 26.1692 20.1821 27.1667 21.0077 27.9923C21.8333 28.8179 22.8308 29.2307 24 29.2307ZM36 43C36.8231 43 37.5288 42.7058 38.1173 42.1173C38.7058 41.5288 39 40.8231 39 40C39 39.1769 38.7058 38.4712 38.1173 37.8827C37.5288 37.2942 36.8231 37 36 37C35.1769 37 34.4712 37.2942 33.8827 37.8827C33.2942 38.4712 33 39.1769 33 40C33 40.8231 33.2942 41.5288 33.8827 42.1173C34.4712 42.7058 35.1769 43 36 43ZM42 22C42.8231 22 43.5288 21.7058 44.1173 21.1173C44.7058 20.5288 45 19.8231 45 19C45 18.1769 44.7058 17.4712 44.1173 16.8827C43.5288 16.2942 42.8231 16 42 16C41.1769 16 40.4712 16.2942 39.8827 16.8827C39.2942 17.4712 39 18.1769 39 19C39 19.8231 39.2942 20.5288 39.8827 21.1173C40.4712 21.7058 41.1769 22 42 22Z" fill="#FF193B"/>
</g>
</svg>
