<svg width="48" height="48" viewBox="0 0 48 48" fill="none" xmlns="http://www.w3.org/2000/svg">
<mask id="mask0_517_685" style="mask-type:alpha" maskUnits="userSpaceOnUse" x="0" y="0" width="48" height="48">
<rect width="48" height="48" fill="#D9D9D9"/>
</mask>
<g mask="url(#mask0_517_685)">
<path d="M17.6231 43.7307L14.0539 37.7153L7.277 36.2307L7.93855 29.2538L3.34625 24L7.93855 18.7462L7.277 11.7693L14.0539 10.2847L17.6231 4.26929L24 6.97699L30.3769 4.26929L33.9461 10.2847L40.723 11.7693L40.0615 18.7462L44.6538 24L40.0615 29.2538L40.723 36.2307L33.9461 37.7153L30.3769 43.7306L24 41.023L17.6231 43.7307ZM18.9 39.9L24 37.7384L29.1616 39.9L32 35.1L37.5 33.8384L37 28.2L40.7 24L37 19.7384L37.5 14.1L32 12.9L29.1 8.09999L24 10.2615L18.8385 8.09999L16 12.9L10.5 14.1L11 19.7384L7.3 24L11 28.2L10.5 33.9L16 35.1L18.9 39.9ZM21.9 30.4076L32.5077 19.8L30.4 17.6308L21.9 26.1308L17.6 21.8923L15.4924 24L21.9 30.4076Z" fill="#FF193B"/>
</g>
</svg>
