<svg width="48" height="48" viewBox="0 0 48 48" fill="none" xmlns="http://www.w3.org/2000/svg">
<mask id="mask0_517_688" style="mask-type:alpha" maskUnits="userSpaceOnUse" x="0" y="0" width="48" height="48">
<rect width="48" height="48" fill="#D9D9D9"/>
</mask>
<g mask="url(#mask0_517_688)">
<path d="M24.3462 42.9615C22.0897 42.6879 19.8487 42.0874 17.6231 41.1601C15.3975 40.2328 13.3975 38.8929 11.6232 37.1404C9.84882 35.3878 8.39436 33.1705 7.25976 30.4885C6.12512 27.8064 5.51294 24.5795 5.4232 20.8078L5.3847 19.0001L7.15395 19.0386C8.70009 19.077 10.402 19.361 12.2597 19.8905C14.1174 20.42 15.7719 21.1437 17.2232 22.0617C17.5078 19.3745 18.2718 16.5835 19.5154 13.6886C20.759 10.7937 22.2539 8.32068 24 6.26941C25.7461 8.32068 27.241 10.8002 28.4846 13.7079C29.7282 16.6155 30.4923 19.4129 30.7769 22.1001C32.1897 21.2206 33.8121 20.5001 35.6442 19.9386C37.4762 19.377 39.1974 19.077 40.8076 19.0386L42.6153 19.0001L42.5768 20.8462C42.5255 24.259 42.0191 27.2391 41.0576 29.7865C40.0961 32.3339 38.7987 34.4967 37.1654 36.2749C35.532 38.0531 33.6231 39.4858 31.4385 40.573C29.2539 41.6602 26.8898 42.4563 24.3462 42.9615ZM24.2847 39.9C23.918 34.3667 22.2763 30.1833 19.3597 27.35C16.443 24.5167 12.818 22.7667 8.48465 22.1C8.85132 27.8 10.543 32.05 13.5597 34.85C16.5763 37.65 20.1513 39.3333 24.2847 39.9ZM24 28.5078C24.4744 27.7232 25.0667 26.9071 25.7769 26.0597C26.4872 25.2123 27.1949 24.4924 27.9 23.9001C27.859 21.9232 27.4968 19.8597 26.8135 17.7097C26.1301 15.5597 25.1923 13.4821 24 11.477C22.8077 13.4821 21.8699 15.5597 21.1866 17.7097C20.5032 19.8597 20.141 21.9232 20.1 23.9001C20.8051 24.4924 21.5148 25.2123 22.2289 26.0597C22.943 26.9071 23.5333 27.7232 24 28.5078ZM27.2846 39.1154C28.6846 38.6513 30.0769 38.0103 31.4615 37.1923C32.8461 36.3743 34.1103 35.2974 35.2539 33.9616C36.3974 32.6257 37.3551 30.9872 38.1269 29.0462C38.8987 27.1051 39.3615 24.7897 39.5154 22.1C36.3308 22.5667 33.5167 23.6564 31.0731 25.3693C28.6295 27.0821 26.8128 29.2206 25.6231 31.7847C26.0231 32.8513 26.3583 33.9731 26.6288 35.15C26.8993 36.3269 27.1179 37.6487 27.2846 39.1154Z" fill="#FF193B"/>
</g>
</svg>
